<svg width="1024" height="1024" viewBox="0 0 1024 1024" fill="none" xmlns="http://www.w3.org/2000/svg">
<path d="M253.617 207.374C256.155 206.972 259.915 207.173 262.555 207.178C271.441 207.197 280.327 207.241 289.213 207.242L356.124 207.218L391.691 207.201C404.579 207.195 417.075 204.825 427.164 216.516C431.269 221.268 434.132 227.389 435.395 234.113C436.665 241.204 436.163 258.887 436.181 267.15C436.238 292.401 436.06 317.696 436.069 342.962C436.074 358.709 444.058 370.767 456.806 373.512C461.235 374.465 468.512 374.128 473.237 374.111L502.203 373.995C508.039 373.971 518.363 373.439 523.745 375.038C528.15 376.319 532.19 379.024 535.443 382.866C541.324 389.78 543.047 398.761 542.883 408.376C542.74 416.726 542.809 425.214 542.805 433.574L542.834 495.598C542.846 504.808 542.621 514.083 542.826 523.287C543.035 532.707 545.283 540.622 551.054 547.103C554.438 550.896 558.609 553.155 563.088 554.259C571.296 556.288 582.448 554.974 590.959 554.989C603.428 555.014 616.094 555.654 628.547 555.014C639.158 554.469 648.559 547.348 652.492 535.07C655.15 526.78 653.928 489.974 653.924 479.206L653.94 310.44L653.891 263.109C653.875 255.256 653.366 244.777 654.199 237.248C656.225 218.956 668.69 207.16 683.674 207.197C707.369 207.255 731.29 207.256 755.006 207.21C761.105 207.196 768.673 206.573 774.575 208.095C779.809 209.411 784.628 212.507 788.476 217.024C794.329 223.863 797.015 233.382 797.02 243.122C797.024 282.597 797.011 322.074 797.015 361.549L797.024 600.168L797.061 730.453L797.048 766.332C797.056 771.609 797.253 781.114 796.814 786.136C796.146 793.801 793.361 800.957 788.919 806.444C779.37 818.227 768.599 816.848 756.228 816.828L735.605 816.788L620.914 816.798L587.083 816.838C575.541 816.863 563.855 818.847 553.999 809.917C539.454 796.745 542.436 775.102 542.436 755.159L542.469 675.17C542.493 662.692 543.006 646.966 542.141 634.903C541.226 622.17 531.612 611.002 521.333 609.353C516.288 608.543 509.688 608.843 504.319 608.853L474.328 608.938C467.449 608.963 460.373 609.383 453.608 608.073C443.994 606.214 434.818 595.326 433.647 583.468C432.738 574.263 433.165 563.304 433.179 553.955L433.22 487.438C433.221 475.879 434.001 463.349 432.778 451.929C431.867 443.422 428.78 436.539 423.065 431.453C415.827 425.01 407.58 425.381 399.028 425.4C395.212 425.409 391.316 425.288 387.531 425.971C379.033 427.505 371.095 434.475 368.157 444.517C364.959 455.449 366.371 500.745 366.374 515.567L366.368 703.114L366.402 756.513C366.454 770.979 368.536 790.993 361.052 802.791C356.362 810.207 349.466 815.079 341.854 816.363C337.233 817.133 330.55 816.843 325.772 816.818L301.112 816.763L269.685 816.838C257.779 816.863 247.996 818.687 238.061 809.242C232.178 803.706 228.371 795.525 227.496 786.53C226.876 780.144 227.145 768.781 227.154 761.875L227.143 719.549L227.191 562.565L227.182 344.556L227.164 276.056C227.148 263.648 226.714 250.29 227.326 237.988C228.187 220.633 240.305 209.142 253.617 207.374Z" fill="currentColor"/>
</svg>
