<svg width="737" height="150" viewBox="0 0 737 150" fill="none" xmlns="http://www.w3.org/2000/svg">
<path d="M263.54 34.2C271.34 34.2 278.3 35.82 284.42 39.06C290.66 42.3 295.52 47.1 299 53.46C302.48 59.82 304.22 67.5 304.22 76.5V135H283.88V79.56C283.88 70.68 281.66 63.9 277.22 59.22C272.78 54.42 266.72 52.02 259.04 52.02C251.36 52.02 245.24 54.42 240.68 59.22C236.24 63.9 234.02 70.68 234.02 79.56V135H213.5V35.82H234.02V47.16C237.38 43.08 241.64 39.9 246.8 37.62C252.08 35.34 257.66 34.2 263.54 34.2Z" fill="currentColor"/>
<path d="M421.295 82.98C421.295 86.7 421.055 90.06 420.575 93.06H344.795C345.395 100.98 348.335 107.34 353.615 112.14C358.895 116.94 365.375 119.34 373.055 119.34C384.095 119.34 391.895 114.72 396.455 105.48H418.595C415.595 114.6 410.135 122.1 402.215 127.98C394.415 133.74 384.695 136.62 373.055 136.62C363.575 136.62 355.055 134.52 347.495 130.32C340.055 126 334.175 120 329.855 112.32C325.655 104.52 323.555 95.52 323.555 85.32C323.555 75.12 325.595 66.18 329.675 58.5C333.875 50.7 339.695 44.7 347.135 40.5C354.695 36.3 363.335 34.2 373.055 34.2C382.415 34.2 390.755 36.24 398.075 40.32C405.395 44.4 411.095 50.16 415.175 57.6C419.255 64.92 421.295 73.38 421.295 82.98ZM399.875 76.5C399.755 68.94 397.055 62.88 391.775 58.32C386.495 53.76 379.955 51.48 372.155 51.48C365.075 51.48 359.015 53.76 353.975 58.32C348.935 62.76 345.935 68.82 344.975 76.5H399.875Z" fill="currentColor"/>
<path d="M465.428 52.56V107.46C465.428 111.18 466.268 113.88 467.948 115.56C469.748 117.12 472.748 117.9 476.948 117.9H489.548V135H473.348C464.108 135 457.028 132.84 452.108 128.52C447.188 124.2 444.728 117.18 444.728 107.46V52.56H433.028V35.82H444.728V11.16H465.428V35.82H489.548V52.56H465.428Z" fill="currentColor"/>
<path d="M532.401 52.56V107.46C532.401 111.18 533.241 113.88 534.921 115.56C536.721 117.12 539.721 117.9 543.921 117.9H556.521V135H540.321C531.081 135 524.001 132.84 519.081 128.52C514.161 124.2 511.701 117.18 511.701 107.46V52.56H500.001V35.82H511.701V11.16H532.401V35.82H556.521V52.56H532.401Z" fill="currentColor"/>
<path d="M666.334 82.98C666.334 86.7 666.094 90.06 665.614 93.06H589.834C590.434 100.98 593.374 107.34 598.654 112.14C603.934 116.94 610.414 119.34 618.094 119.34C629.134 119.34 636.934 114.72 641.494 105.48H663.634C660.634 114.6 655.174 122.1 647.254 127.98C639.454 133.74 629.734 136.62 618.094 136.62C608.614 136.62 600.094 134.52 592.534 130.32C585.094 126 579.214 120 574.894 112.32C570.694 104.52 568.594 95.52 568.594 85.32C568.594 75.12 570.634 66.18 574.714 58.5C578.914 50.7 584.734 44.7 592.174 40.5C599.734 36.3 608.374 34.2 618.094 34.2C627.454 34.2 635.794 36.24 643.114 40.32C650.434 44.4 656.134 50.16 660.214 57.6C664.294 64.92 666.334 73.38 666.334 82.98ZM644.914 76.5C644.794 68.94 642.094 62.88 636.814 58.32C631.534 53.76 624.994 51.48 617.194 51.48C610.114 51.48 604.054 53.76 599.014 58.32C593.974 62.76 590.974 68.82 590.014 76.5H644.914Z" fill="currentColor"/>
<path d="M707.047 50.22C710.047 45.18 714.007 41.28 718.927 38.52C723.967 35.64 729.907 34.2 736.747 34.2V55.44H731.527C723.487 55.44 717.367 57.48 713.167 61.56C709.087 65.64 707.047 72.72 707.047 82.8V135H686.527V35.82H707.047V50.22Z" fill="currentColor"/>
<path d="M6.53646 0.0919059C7.15975 -0.00675686 8.083 0.042452 8.73117 0.0438019C10.9135 0.0483423 13.0955 0.0592666 15.2778 0.059512L40.4433 0.0493257C43.6082 0.0479758 46.6769 -0.534184 49.1545 2.33698C50.1625 3.50375 50.8656 5.00689 51.1757 6.65814C51.4878 8.39946 51.3644 12.742 51.3689 14.7711C51.3828 20.972 51.3391 27.1838 51.3412 33.3884C51.3425 37.2554 53.3033 40.2164 56.4336 40.8904C57.5213 41.1247 59.3083 41.0419 60.4687 41.0377L67.5818 41.0091C69.0152 41.0032 71.5504 40.8727 72.8719 41.2652C73.9537 41.58 74.9459 42.2441 75.7447 43.1877C77.1891 44.8856 77.6121 47.091 77.5718 49.4523C77.5366 51.5026 77.5537 53.5871 77.5527 55.64L77.5597 70.8713C77.5627 73.1331 77.5073 75.4107 77.5577 77.6711C77.6091 79.9842 78.1611 81.928 79.5783 83.5196C80.4093 84.451 81.4336 85.0057 82.5336 85.2769C84.5491 85.7751 87.2878 85.4524 89.3779 85.4561C92.4399 85.4622 95.5503 85.6193 98.6084 85.4622C101.214 85.3285 103.523 83.5798 104.489 80.5647C105.141 78.5288 104.841 69.4903 104.84 66.8459L104.844 25.402L104.832 13.7787C104.828 11.8503 104.703 9.27687 104.908 7.42793C105.405 2.93607 108.466 0.0393863 112.146 0.0483445C117.965 0.0625795 123.839 0.0629486 129.663 0.0516588C131.161 0.0481001 133.019 -0.104926 134.469 0.268986C135.754 0.592095 136.938 1.35231 137.882 2.46153C139.32 4.14113 139.979 6.4786 139.98 8.87044C139.981 18.5646 139.978 28.2588 139.979 37.9529L139.987 137.356C139.989 138.652 140.038 140.986 139.93 142.219C139.766 144.102 139.082 145.859 137.991 147.206C135.646 150.1 133.001 149.761 129.963 149.756L124.899 149.746L96.7339 149.749L88.426 149.759C85.5916 149.765 82.7219 150.252 80.3015 148.059C76.7297 144.824 77.462 139.51 77.462 134.612L77.4701 114.969C77.4761 111.905 77.602 108.043 77.3895 105.081C77.1649 101.954 74.8039 99.2112 72.2797 98.8062C71.0408 98.6074 69.4201 98.6811 68.1016 98.6835L60.7366 98.7044C59.0473 98.7105 57.3096 98.8136 55.6485 98.4921C53.2876 98.0356 51.0342 95.3616 50.7466 92.4496C50.5232 90.1892 50.6282 87.4981 50.6317 85.2021L50.6417 68.8675C50.6419 66.0288 50.8335 62.9519 50.5332 60.1475C50.3095 58.0585 49.5514 56.3681 48.148 55.1191C46.3704 53.537 44.3453 53.6281 42.2451 53.6328C41.3081 53.6349 40.3512 53.6053 39.4218 53.7731C37.3349 54.1497 35.3855 55.8613 34.6641 58.3274C33.8787 61.0119 34.2256 72.1354 34.2263 75.7751L34.2331 134.945C34.246 138.497 34.7571 143.412 32.9194 146.309C31.7675 148.13 30.0742 149.327 28.2048 149.642C27.0701 149.831 25.4289 149.76 24.2555 149.754L18.1997 149.74L10.4822 149.759C7.55842 149.765 5.15601 150.213 2.71623 147.893C1.27163 146.534 0.33659 144.525 0.121743 142.316C-0.0305546 140.748 0.0357221 137.957 0.0378374 136.261L0.0402565 16.9581C0.036429 13.9111 -0.0701406 10.6307 0.0799406 7.60967C0.291565 3.34778 3.2674 0.525949 6.53646 0.0919059Z" fill="currentColor"/>
</svg>
